<svg width="71" height="74" viewBox="0 0 71 74" fill="none" xmlns="http://www.w3.org/2000/svg">
<path d="M51.8547 45.3496H12.0859V56.5551H51.8547V45.3496Z" fill="#d97e00"/>
<path d="M8.69247 59.3857C8.31512 59.3857 7.92958 59.3857 7.55223 59.3857C7.48661 59.3857 7.42098 59.3857 7.35536 59.3857C6.12489 59.4514 5.41942 60.4439 5.41942 61.6006V70.2057C5.41942 70.5092 5.40301 70.8127 5.42762 71.108C5.50965 72.1908 6.38739 72.9619 7.45379 72.9947C7.74911 73.0029 8.04442 72.9947 8.33973 72.9947H57.1893V59.3857H8.69247ZM15.9276 69.1639C14.3116 69.1639 12.9499 67.8022 12.9499 66.1861C12.9499 64.5947 14.205 63.3643 15.7307 63.2166C15.7964 63.2084 15.862 63.2002 15.9276 63.2002C16.0015 63.2002 16.0753 63.2002 16.1491 63.2166C17.6667 63.3725 18.9054 64.6029 18.9054 66.1779C18.9054 67.8104 17.5436 69.1639 15.9276 69.1639Z" fill="#d97e00"/>
<path d="M70.0992 61.0838C69.9105 60.1076 69.1559 59.4186 68.1059 59.3857C68.0074 59.3857 67.9172 59.3857 67.8188 59.3857H59.6484V72.9947H65.932C66.7523 72.9947 67.6137 73.0768 68.4258 72.9619C69.5742 72.8061 70.1402 71.8135 70.1402 70.7471V61.3791C70.132 61.2807 70.1238 61.174 70.0992 61.0838Z" fill="#d97e00"/>
<path d="M63.9266 50.4191V47.343C63.9184 47.2363 63.902 47.1379 63.8855 47.0477C63.6969 46.0715 62.9422 45.3906 61.9004 45.3496C61.8102 45.3496 61.7199 45.3496 61.6379 45.3496H54.3125V56.5551H61.7609C63.0078 56.5551 63.9102 55.6773 63.9266 54.4223C63.943 53.0852 63.9266 51.7562 63.9266 50.4191Z" fill="#d97e00"/>
<path d="M4.23347 45.3495C3.49519 45.3495 2.7487 45.3167 2.01042 45.3495C0.820969 45.3988 0.0252657 46.3011 0.00885946 47.4659C0.000656331 47.9663 0.00885946 48.4667 0.00885946 48.9671V53.6101C0.00885946 53.9628 -0.01575 54.3238 0.0170625 54.6683C0.1155 55.7511 0.952219 56.5222 2.03503 56.5468C2.30573 56.555 2.56823 56.5468 2.83894 56.5468H9.62292V45.3495H4.23347Z" fill="#d97e00"/>
<path d="M34.4271 10.339C35.6822 10.4784 36.9865 10.3554 38.2251 10.1421C40.604 9.72373 42.8845 8.54248 44.2052 6.45889C45.1732 4.94131 45.4767 3.0792 45.4193 1.30733C45.4111 1.14326 45.3782 0.9792 45.3044 0.823341C45.1814 0.487012 44.9271 0.199903 44.5661 0.126075C44.5497 0.126075 44.5333 0.117872 44.5169 0.117872C44.4021 0.101466 44.279 0.0850594 44.1642 0.0768563C42.8927 -0.0625969 41.613 -0.00517487 40.3415 0.1917C37.9462 0.560841 35.6165 1.72568 34.3122 3.84209C33.3525 5.40889 33.0818 7.30381 33.1966 9.1085C33.2458 9.83858 33.7298 10.2651 34.4271 10.339Z" fill="#d97e00"/>
<path d="M50.5079 19.1905C49.6465 16.8936 48.2028 14.8675 46.152 13.4975C43.7977 11.9143 40.8692 11.6518 38.1704 12.3655C36.8743 12.71 35.529 13.2432 34.3723 13.9733C33.2649 13.276 31.9934 12.7592 30.7547 12.4147C29.4094 12.0374 27.9739 11.8651 26.5876 12.0456C24.8485 12.2671 23.2899 12.9233 21.9118 13.9979C17.3426 17.5745 16.6536 23.9811 17.9661 29.2721C18.8766 32.9389 20.6403 36.5483 22.9864 39.5096C24.4301 41.3307 26.4071 42.9057 28.827 42.9796C30.3856 43.0206 31.7473 42.3807 33.1583 41.8393C33.4372 41.7327 33.7161 41.6343 34.0032 41.5604C34.0524 41.544 34.1098 41.5358 34.1672 41.5276C34.1508 41.5276 34.1344 41.5276 34.1262 41.5276C34.1508 41.5276 34.2329 41.5112 34.2821 41.503C34.2657 41.503 34.2493 41.5112 34.2247 41.5194C34.2083 41.5276 34.1919 41.5276 34.1755 41.5276C34.2903 41.5276 34.4051 41.5194 34.5282 41.5194C34.5118 41.5194 34.5036 41.5194 34.4872 41.5112C34.5036 41.5112 34.52 41.5194 34.5282 41.5194C34.6922 41.5194 34.6512 41.5358 34.561 41.5276C34.5856 41.5276 34.6102 41.5358 34.6348 41.5358C34.7825 41.5686 34.9219 41.6096 35.0696 41.6507C35.3649 41.7409 35.652 41.8557 35.9391 41.9706C37.3583 42.5448 38.802 43.1272 40.3688 42.9467C43.0184 42.6432 44.9297 40.7237 46.4309 38.6647C46.9723 37.9182 47.4645 37.1225 47.9157 36.3186C50.7376 31.2655 52.6407 24.8671 50.5079 19.1905Z" fill="#d97e00"/>
</svg>
