<svg width="165" height="156" viewBox="0 0 165 156" fill="none" xmlns="http://www.w3.org/2000/svg">
<path d="M38.2588 131.536C48.0319 131.536 55.9209 139.485 55.9209 149.199C55.9209 149.729 55.9213 150.258 55.8037 150.788C50.564 153.555 44.6172 155.086 38.2588 155.086C31.9593 155.086 25.9546 153.555 20.7148 150.788C20.5972 150.258 20.5967 149.729 20.5967 149.199C20.5967 139.485 28.5447 131.536 38.2588 131.536ZM126.599 131.53C136.335 131.53 144.262 139.457 144.262 149.193C144.262 149.745 144.144 150.26 144.1 150.805C138.845 153.52 132.906 155.08 126.6 155.08C120.293 155.08 114.353 153.52 109.099 150.805C109.047 150.268 108.937 149.745 108.937 149.193C108.937 139.457 116.862 131.531 126.599 131.53ZM126.599 78.5439C147.696 78.5439 164.867 95.7131 164.867 116.812C164.867 126.569 161.165 135.46 155.131 142.223C153.1 134.061 147.669 127.261 140.413 123.36C142.473 120.535 143.725 117.083 143.725 113.33C143.725 103.888 136.041 96.2052 126.6 96.2051C117.158 96.2051 109.475 103.888 109.475 113.33C109.475 117.083 110.726 120.534 112.786 123.36C105.53 127.261 100.091 134.061 98.0674 142.223C92.0328 135.46 88.3311 126.57 88.3311 116.812C88.3312 102.837 95.882 90.6212 107.104 83.9463L107.084 83.918C110.119 82.3683 114.358 80.5369 118.321 79.4639L118.327 79.4717C120.991 78.883 123.758 78.544 126.599 78.5439ZM38.2676 78.5439C39.3175 78.544 40.3573 78.5901 41.3857 78.6768C41.3755 78.6877 41.3699 78.6935 41.3691 78.6943C41.4467 78.6943 41.5249 78.6948 41.6035 78.6963C43.0445 78.8262 44.4622 79.0392 45.8535 79.3232C51.572 80.7326 58.1137 84.1728 60.9521 86.0527C70.3961 93.0284 76.5361 104.212 76.5361 116.812C76.5361 126.526 72.8862 135.475 66.8223 142.187C64.8205 134.062 59.345 127.291 52.1035 123.347C54.1639 120.521 55.4003 117.107 55.4004 113.339C55.4004 103.919 47.7462 96.2061 38.2676 96.2061C28.848 96.2063 21.1943 103.919 21.1943 113.339C21.1944 117.106 22.4308 120.521 24.4912 123.347C17.2497 127.233 11.7746 134.003 9.71387 142.128C3.65009 135.415 5.23008e-05 126.525 0 116.812C0 95.7356 17.1898 78.5439 38.2676 78.5439ZM86.4053 119.998C86.4099 120.044 87.3512 129.418 88.292 129.418C89.2337 129.418 82.6243 130.385 76.9854 129.418C76.7214 129.373 78.8769 122.824 78.877 119.998H86.4053ZM38.2598 107.981C41.2624 107.981 43.6171 110.395 43.6172 113.339C43.6172 116.283 41.2624 118.696 38.2598 118.696C35.3162 118.696 32.9609 116.283 32.9609 113.339C32.961 110.395 35.3162 107.982 38.2598 107.981ZM126.599 107.981C129.55 107.981 131.949 110.38 131.949 113.331C131.949 116.282 129.55 118.682 126.599 118.682C123.648 118.681 121.249 116.282 121.249 113.331C121.249 110.38 123.648 107.982 126.599 107.981ZM53.5674 69.4189C56.7463 71.7148 60.2783 73.6581 63.9873 75.1299L59.2969 81.8076C57.6964 80.7912 55.8223 79.6562 54.2598 78.8701C52.5857 78.0279 50.29 77.0914 48.6621 76.4551L53.5674 69.4189ZM116.227 76.4746C114.632 77.0736 112.462 77.9258 110.865 78.6943C109.202 79.4947 107.181 80.676 105.527 81.6895L101.026 75.2471C104.735 73.8341 108.267 71.9503 111.446 69.6543L116.227 76.4746ZM82.6494 52.9844C92.3856 52.9844 100.312 60.9103 100.312 70.6465C100.312 71.1984 100.202 71.7216 100.15 72.2588C94.8958 74.9743 88.9564 76.5342 82.6494 76.5342C76.3426 76.5341 70.4038 74.9742 65.1494 72.2588C65.1053 71.7142 64.9873 71.1984 64.9873 70.6465C64.9875 60.9104 72.9134 52.9846 82.6494 52.9844ZM82.6436 0C103.741 0.000116972 120.91 17.1691 120.91 38.2676C120.91 48.0252 117.208 56.9148 111.174 63.6777C109.143 55.5161 103.712 48.7158 96.4561 44.8154C98.5164 41.9896 99.7676 38.5382 99.7676 34.7852C99.7676 25.3433 92.0844 17.6603 82.6426 17.6602C73.2007 17.6602 65.5176 25.3433 65.5176 34.7852C65.5176 38.5383 66.7685 41.9895 68.8291 44.8154C61.5729 48.7163 56.1361 55.5165 54.1123 63.6777C48.0778 56.9152 44.3761 48.0256 44.376 38.2676C44.376 17.1696 61.545 0 82.6436 0ZM82.6504 29.4355C85.6012 29.4358 88 31.8352 88 34.7861C87.9999 37.7369 85.6011 40.1355 82.6504 40.1357C79.6994 40.1357 77.2999 37.7371 77.2998 34.7861C77.2998 31.8351 79.6993 29.4355 82.6504 29.4355Z" fill="#7B1A5E"/>
</svg>
