<svg width="6279" height="2538" viewBox="0 0 6279 2538" fill="none" xmlns="http://www.w3.org/2000/svg">
<path d="M2161.36 521.711C2161.36 480.879 2149.49 450.967 2125.75 431.976C2102.96 412.984 2071.63 403.488 2031.74 403.488C2004.21 403.488 1978.57 406.812 1954.83 413.459C1932.04 420.106 1912.1 428.652 1895.01 439.098V954.717C1886.46 956.616 1875.06 958.99 1860.82 961.838C1846.58 964.687 1830.43 966.111 1812.39 966.111C1779.16 966.111 1754.47 959.939 1738.33 947.595C1722.18 935.25 1714.11 913.41 1714.11 882.074V424.854C1714.11 402.064 1718.86 383.547 1728.35 369.304C1737.85 355.06 1752.57 341.291 1772.51 327.997C1800.05 309.006 1836.61 293.338 1882.19 280.993C1927.77 267.699 1978.09 261.052 2033.17 261.052C2130.97 261.052 2206.47 282.892 2259.64 326.573C2313.77 369.304 2340.83 432.45 2340.83 516.013V954.717C2333.23 956.616 2321.84 958.99 2306.65 961.838C2292.4 964.687 2276.73 966.111 2259.64 966.111C2225.46 966.111 2200.29 959.939 2184.15 947.595C2168.96 935.25 2161.36 913.41 2161.36 882.074V521.711Z" fill="white"/>
<path d="M2898.3 521.711C2898.3 480.879 2886.43 450.967 2862.69 431.976C2839.9 412.984 2808.57 403.488 2768.68 403.488C2741.15 403.488 2715.51 406.812 2691.77 413.459C2668.98 420.106 2649.04 428.652 2631.95 439.098V954.717C2623.4 956.616 2612 958.99 2597.76 961.838C2583.52 964.687 2567.37 966.111 2549.33 966.111C2516.1 966.111 2491.41 959.939 2475.27 947.595C2459.12 935.25 2451.05 913.41 2451.05 882.074V424.854C2451.05 402.064 2455.8 383.547 2465.3 369.304C2474.79 355.06 2489.51 341.291 2509.45 327.997C2536.99 309.006 2573.55 293.338 2619.13 280.993C2664.71 267.699 2715.03 261.052 2770.11 261.052C2867.91 261.052 2943.41 282.892 2996.58 326.573C3050.71 369.304 3077.77 432.45 3077.77 516.013V954.717C3070.17 956.616 3058.78 958.99 3043.59 961.838C3029.34 964.687 3013.67 966.111 2996.58 966.111C2962.4 966.111 2937.23 959.939 2921.09 947.595C2905.9 935.25 2898.3 913.41 2898.3 882.074V521.711Z" fill="white"/>
<path d="M3334.7 699.756C3348 748.184 3372.68 783.318 3408.77 805.159C3444.85 826.999 3489.48 837.919 3542.66 837.919C3582.54 837.919 3619.1 832.221 3652.33 820.826C3686.52 808.482 3714.06 795.663 3734.95 782.369C3748.24 789.965 3759.16 800.411 3767.71 813.705C3776.25 826.999 3780.53 841.242 3780.53 856.436C3780.53 875.427 3773.88 892.519 3760.59 907.713C3748.24 921.956 3730.67 934.301 3707.88 944.746C3686.04 955.191 3659.93 963.263 3629.54 968.96C3599.16 974.658 3566.4 977.506 3531.26 977.506C3475.24 977.506 3423.96 969.91 3377.43 954.717C3331.85 939.523 3292.45 916.734 3259.21 886.347C3226.92 855.011 3201.29 816.553 3182.29 770.974C3164.25 725.394 3155.23 672.218 3155.23 611.445C3155.23 552.572 3164.25 501.295 3182.29 457.614C3200.34 413.934 3224.55 377.375 3254.94 347.938C3286.27 318.501 3322.36 296.661 3363.19 282.418C3404.02 268.174 3447.23 261.052 3492.81 261.052C3539.33 261.052 3582.07 268.649 3621 283.842C3659.93 298.086 3693.17 318.502 3720.7 345.09C3748.24 370.728 3769.61 402.064 3784.8 439.098C3800.94 475.181 3809.01 514.589 3809.01 557.32C3809.01 583.908 3801.89 603.849 3787.65 617.143C3774.35 630.437 3755.36 638.983 3730.67 642.781L3334.7 699.756ZM3492.81 396.367C3446.28 396.367 3407.34 412.035 3376.01 443.371C3344.67 473.757 3327.1 517.437 3323.31 574.412L3639.51 527.408C3635.72 492.274 3621.95 461.887 3598.21 436.249C3574.47 409.661 3539.33 396.367 3492.81 396.367Z" fill="white"/>
<path d="M4226.61 404.913C4198.12 404.913 4171.53 409.661 4146.84 419.156C4123.1 428.652 4102.21 442.421 4084.17 460.463C4067.08 478.505 4053.31 500.82 4042.87 527.408C4032.42 553.996 4027.2 584.857 4027.2 619.991C4027.2 690.26 4045.71 743.436 4082.75 779.52C4119.78 814.654 4167.73 832.221 4226.61 832.221C4259.84 832.221 4288.33 827.948 4312.07 819.402C4336.76 809.906 4358.6 799.936 4377.59 789.491C4390.88 798.986 4401.33 809.906 4408.93 822.251C4417.47 834.595 4421.75 848.839 4421.75 864.982C4421.75 897.267 4402.75 923.855 4364.77 944.746C4326.79 965.637 4275.51 976.082 4210.94 976.082C4156.81 976.082 4106.96 968.96 4061.38 954.717C4016.75 939.523 3978.29 917.208 3946.01 887.772C3913.72 857.385 3888.56 819.877 3870.52 775.247C3853.43 730.617 3844.88 678.865 3844.88 619.991C3844.88 560.168 3854.37 507.942 3873.37 463.312C3892.36 417.732 3918 380.224 3950.28 350.787C3983.52 320.401 4021.97 298.086 4065.66 283.842C4109.34 268.649 4155.86 261.052 4205.24 261.052C4268.86 261.052 4319.67 272.447 4357.65 295.237C4395.63 317.077 4414.62 344.14 4414.62 376.426C4414.62 391.619 4410.35 405.388 4401.8 417.732C4394.21 430.077 4385.19 440.047 4374.74 447.644C4355.75 437.198 4334.38 427.703 4310.65 419.156C4287.86 409.661 4259.84 404.913 4226.61 404.913Z" fill="white"/>
<path d="M4677.24 746.76C4677.24 777.146 4686.26 798.986 4704.3 812.28C4723.29 825.574 4749.41 832.221 4782.64 832.221C4798.79 832.221 4814.93 830.322 4831.07 826.524C4848.16 822.726 4863.36 817.978 4876.65 812.28C4884.25 819.877 4890.42 829.373 4895.17 840.768C4900.87 851.213 4903.71 863.557 4903.71 877.801C4903.71 906.288 4890.89 930.028 4865.26 949.019C4839.62 967.061 4798.31 976.082 4741.34 976.082C4666.32 976.082 4606.97 959.464 4563.29 926.229C4520.56 892.045 4499.2 836.02 4499.2 758.155V104.372C4506.79 102.473 4517.71 100.099 4531.96 97.2506C4547.15 94.4019 4563.29 92.9775 4580.38 92.9775C4613.62 92.9775 4637.83 99.1497 4653.03 111.494C4669.17 123.839 4677.24 145.679 4677.24 177.015V295.237H4886.62C4891.37 302.834 4895.64 312.804 4899.44 325.149C4903.24 337.493 4905.14 350.787 4905.14 365.031C4905.14 389.72 4899.44 407.762 4888.05 419.156C4876.65 430.551 4861.46 436.249 4842.47 436.249H4677.24V746.76Z" fill="white"/>
<path d="M747.032 142.436C747.032 162.64 741.476 180.318 730.364 195.471C719.252 209.614 706.625 220.726 692.482 228.807C666.218 211.634 636.922 195.976 604.596 181.833C572.27 167.691 532.368 160.62 484.889 160.62C399.023 160.62 330.331 188.4 278.811 243.96C228.302 299.52 203.047 379.83 203.047 484.889C203.047 591.969 229.312 672.279 281.842 725.819C334.371 779.358 405.085 806.128 493.981 806.128C540.449 806.128 580.352 800.067 613.688 787.945C648.034 774.812 678.34 759.66 704.605 742.487C718.747 751.578 730.364 764.206 739.456 780.369C748.548 795.521 753.094 813.2 753.094 833.403C753.094 850.576 748.548 866.234 739.456 880.377C730.364 894.52 715.212 907.147 693.998 918.259C673.794 930.381 645.004 941.493 607.627 951.595C571.26 962.707 525.802 968.263 471.252 968.263C404.579 968.263 342.453 958.666 284.872 939.473C228.302 919.269 178.803 889.469 136.375 850.071C93.9473 809.664 60.6112 759.155 36.3667 698.544C12.1222 637.932 0 566.714 0 484.889C0 406.095 12.1222 336.897 36.3667 277.296C60.6112 216.685 93.4422 166.176 134.86 125.768C177.288 84.3505 226.282 53.0347 281.842 31.8208C338.412 10.6069 398.013 0 460.645 0C504.083 0 543.48 4.04075 578.836 12.1223C614.193 19.1935 644.499 29.2954 669.753 42.4278C695.008 55.5602 714.201 70.713 727.334 87.8862C740.466 105.059 747.032 123.243 747.032 142.436Z" fill="white"/>
<path d="M5064.06 971.294C5031.74 971.294 5005.98 961.697 4986.78 942.503C4968.6 923.31 4959.51 897.55 4959.51 865.224V153.043C4959.51 120.717 4968.6 95.4626 4986.78 77.2793C5005.98 58.0857 5031.74 48.4889 5064.06 48.4889H5565.62C5570.67 56.5704 5575.22 67.1774 5579.26 80.3098C5583.3 93.4422 5585.32 108.09 5585.32 124.253C5585.32 150.518 5579.26 170.721 5567.13 184.864C5555.01 199.007 5538.34 206.078 5517.13 206.078H5150.43V421.247H5520.16C5525.21 429.329 5529.76 439.936 5533.8 453.068C5538.85 465.191 5541.37 479.333 5541.37 495.496C5541.37 550.046 5518.14 577.321 5471.67 577.321H5150.43V812.189H5571.68C5576.73 820.271 5581.28 831.383 5585.32 845.526C5590.37 858.658 5592.89 873.306 5592.89 889.469C5592.89 944.019 5569.66 971.294 5523.19 971.294H5064.06Z" fill="white"/>
<path d="M6260.95 825.1C6260.95 846.94 6256.2 864.507 6246.71 877.801C6237.21 891.095 6222.97 903.914 6203.98 916.259C6180.24 931.452 6148.9 945.221 6109.97 957.565C6071.04 970.859 6025.93 977.506 5974.65 977.506C5860.71 977.506 5770.02 948.544 5702.6 890.62C5636.13 831.747 5602.9 742.012 5602.9 621.416C5602.9 558.744 5611.92 505.093 5629.96 460.463C5648 414.883 5672.22 377.375 5702.6 347.938C5733.94 318.501 5770.5 296.661 5812.28 282.418C5854.06 268.174 5899.16 261.052 5947.59 261.052C5973.23 261.052 5997.44 263.901 6020.23 269.598C6043.02 274.346 6063.44 280.518 6081.48 288.115V30.3056C6089.08 27.4568 6100 25.0829 6114.24 23.1838C6129.44 20.335 6145.58 18.9106 6162.67 18.9106C6196.86 18.9106 6221.54 25.0829 6236.74 37.4274C6252.88 49.7718 6260.95 71.6121 6260.95 102.948V825.1ZM6081.48 433.4C6067.24 424.854 6050.62 417.732 6031.63 412.035C6012.64 406.337 5992.22 403.488 5970.38 403.488C5917.21 403.488 5873.05 420.581 5837.92 454.765C5802.78 488.95 5785.21 544.975 5785.21 622.84C5785.21 695.957 5801.83 749.608 5835.07 783.793C5869.25 817.028 5915.31 833.646 5973.23 833.646C5997.92 833.646 6018.81 830.797 6035.9 825.1C6053.94 819.402 6069.14 812.755 6081.48 805.159V433.4Z" fill="white"/>
<path fill-rule="evenodd" clip-rule="evenodd" d="M695.005 510.581C689.754 549.587 689.379 589.337 693.891 628.435L831.725 655.542C839.758 691.187 853.376 726.186 871.908 757.745L791.289 875.546C814.703 907.151 841.636 935.303 871.399 959.297L987.932 878.799C1018.43 898.615 1051.77 912.878 1086.56 922.273L1110.32 1064.08C1148.63 1069.32 1186.99 1069.68 1225.39 1065.16L1251.83 923.835C1286.78 915.098 1320.39 901.467 1351.26 882.231L1466.25 964.916C1496.47 940.792 1523.93 913.154 1547.93 882.694L1469.55 763.391C1488.67 732.188 1502.94 698.149 1511.65 661.965L1651.37 637.48C1656.62 598.474 1657 558.724 1652.48 519.626L1514.65 492.519C1506.62 456.875 1493 421.875 1474.47 390.315L1555.09 272.515C1531.67 240.91 1504.74 212.758 1474.98 188.764L1358.44 269.262C1327.94 249.446 1294.6 235.183 1259.82 225.788L1236.05 83.9859C1197.74 78.7421 1159.39 78.3797 1120.99 82.8989L1094.54 224.226C1059.59 232.963 1025.99 246.594 995.117 265.83L880.126 183.145C849.909 207.269 822.448 234.907 798.448 265.367L876.827 384.67C857.702 415.873 843.432 449.912 834.721 486.096L695.005 510.581ZM927.108 504.975C934.04 358.487 1072.79 316.672 1180.43 423.529C1284.31 326.175 1431.58 384.066 1424.07 531.346C1417.13 677.833 1160.35 825.461 1160.35 825.461C1160.35 825.461 920.176 651.462 927.108 504.975Z" fill="white"/>
<path fill-rule="evenodd" clip-rule="evenodd" d="M2449.54 1202.74C2475.11 1232.73 2495.24 1265.81 2510.66 1301.86L2662.45 1305.65C2674 1345.29 2680.61 1386.47 2682.17 1428.46L2538.48 1479.7C2535.12 1518.77 2526.36 1556.49 2511.46 1592.97L2616.66 1703.54C2596.6 1740.11 2572.34 1773.65 2543.89 1804.15L2405.95 1738.86C2375.96 1764.42 2342.88 1784.56 2306.83 1799.98L2303.16 1952.49C2263.51 1964.04 2222.33 1970.65 2180.34 1972.21L2129.83 1828.4C2090.76 1825.04 2053.04 1816.28 2016.56 1801.39L1905.99 1906.59C1869.42 1886.52 1835.88 1862.27 1805.38 1833.82L1870.67 1695.87C1845.1 1665.89 1824.97 1632.81 1809.55 1596.75L1657.04 1593.08C1645.49 1553.44 1638.87 1512.26 1637.32 1470.27L1781.01 1419.03C1784.37 1379.96 1793.13 1342.24 1808.02 1305.76L1702.82 1195.19C1722.89 1158.62 1747.14 1125.08 1775.59 1094.58L1913.54 1159.87C1943.52 1134.31 1976.6 1114.17 2012.66 1098.75L2016.33 946.242C2055.98 934.689 2097.15 928.076 2139.14 926.521L2190.38 1070.21C2229.45 1073.57 2267.17 1082.33 2303.65 1097.23L2414.22 992.025C2450.79 1012.09 2484.33 1036.35 2514.83 1064.8L2449.54 1202.74ZM2243.93 1641.7L2142.75 1659.6C2135.52 1661.11 2130.69 1667.78 2132.19 1675.01C2133.7 1682.23 2140.38 1687.07 2147.6 1685.56L2248.78 1667.66C2256 1666.15 2260.84 1659.48 2259.33 1652.25C2257.83 1645.03 2251.15 1640.19 2243.93 1641.7ZM2148.86 1695.6L2250.04 1677.69C2257.21 1676.89 2264.59 1681.79 2265.45 1688.25C2266.95 1695.47 2262.12 1702.15 2254.89 1703.65L2153.71 1721.56C2146.49 1723.06 2139.81 1718.23 2138.31 1711C2136.81 1703.78 2141.64 1697.1 2148.86 1695.6ZM2139.43 1206.44L2126.88 1135.26C2124.43 1122.96 2113.15 1114.65 2100.85 1117.1C2088.55 1119.56 2080.24 1130.83 2082.69 1143.13L2095.24 1214.32C2097.7 1226.62 2108.97 1234.93 2121.27 1232.47C2133.46 1231.22 2141.88 1218.74 2139.43 1206.44ZM1857.35 1445.95L1929.4 1441.65C1941.34 1440.34 1952.07 1450.03 1953.52 1463.17C1954.57 1472.72 1948.32 1481.87 1939.03 1485.31C1936.77 1486.76 1934.38 1487.03 1932 1487.29L1859.96 1491.58C1847.88 1491.7 1835.95 1482.14 1835.84 1470.07C1835.59 1456.8 1845.28 1446.06 1857.35 1445.95ZM2372.62 1363.02L2441.74 1342.27C2453.11 1338.23 2465.91 1344.97 2470.24 1357.51C2474.28 1368.89 2466.37 1381.98 2454.99 1386.02L2385.87 1406.77C2383.54 1407.34 2381.21 1407.92 2378.59 1407.32C2368.68 1407.29 2359.67 1400.85 2357.37 1391.52C2354.21 1378.69 2360.95 1365.89 2372.62 1363.02ZM1917.67 1612.52L1980.93 1578.19C1992.32 1571.94 2005.18 1576.67 2011.43 1588.06C2016.48 1599.35 2012.95 1612.31 2001.56 1618.56L1938.3 1652.88C1937.57 1653.5 1936.5 1653.7 1935.25 1653.94C1934.28 1654.12 1933.2 1654.33 1932.11 1654.76C1922.33 1656.33 1913.06 1651.91 1907.8 1643.01C1902.75 1631.72 1906.28 1618.77 1917.67 1612.52ZM1954.79 1314.45L1901.82 1265.27C1892.28 1256.53 1891.97 1242.02 1900.71 1232.48C1904.52 1229.31 1908.34 1226.15 1913.19 1225.15C1920.72 1224.19 1928.22 1225.92 1933.51 1231.38L1986.48 1280.55C1996.01 1289.3 1996.33 1303.81 1987.58 1313.35C1977.23 1322.32 1963.24 1323.72 1954.79 1314.45ZM2442.18 1521.21L2370.98 1510.74C2358.13 1508.79 2347.68 1517.65 2345.74 1530.5C2344.87 1542.84 2352.65 1553.79 2365.49 1555.74L2436.7 1566.21C2437.59 1566.53 2438.67 1566.35 2439.92 1566.15C2440.9 1565.99 2441.98 1565.81 2443.16 1565.84C2452.88 1563.95 2460.06 1556.61 2461.94 1546.45C2462.8 1534.11 2455.03 1523.16 2442.18 1521.21ZM2304.81 1252.35L2337.62 1187.95C2343.57 1176.46 2338.87 1162.73 2327.38 1156.78C2322.71 1155.12 2318.05 1153.46 2313.15 1154.19C2305.74 1155.88 2299.3 1160.09 2296.21 1167.03L2263.39 1231.43C2257.44 1242.92 2262.14 1256.65 2273.63 1262.6C2286.44 1267.46 2300.06 1263.96 2304.81 1252.35ZM2124.39 1262.29C2157.57 1255.94 2191.96 1260.33 2222.67 1274.33C2263.65 1292.77 2294.83 1325.97 2311.02 1368.52C2326.56 1410.3 2325.42 1456.32 2306.98 1497.3L2251.6 1620.92C2250.72 1622.97 2249.19 1624.26 2247.01 1624.78L2133.9 1644.8C2131.72 1645.32 2128.97 1644.38 2127.68 1642.85L2033.18 1546C1985.02 1495.72 1972.16 1422.95 2000.35 1359.41C2023.23 1308.18 2069.65 1271.75 2124.39 1262.29Z" fill="white"/>
<path fill-rule="evenodd" clip-rule="evenodd" d="M534.854 2095.36C502.741 2049.64 477.064 1998.39 460.64 1944.45L242.016 1917.85C231.125 1859.06 227.006 1798.02 230.783 1738.12L444.74 1685.06C455.169 1629.33 473.268 1576.32 499.826 1526.14L364.371 1352.73C398.826 1303.68 438.354 1258.59 483.631 1218.35L672.054 1331.68C717.775 1299.57 769.019 1273.89 822.962 1257.47L849.559 1038.84C908.349 1027.95 969.389 1023.83 1029.29 1027.61L1082.35 1241.57C1138.08 1252 1191.09 1270.1 1241.27 1296.65L1414.68 1161.2C1463.73 1195.65 1508.82 1235.18 1549.06 1280.46L1435.73 1468.88C1467.84 1514.6 1493.52 1565.85 1509.94 1619.79L1728.57 1646.39C1739.46 1705.18 1743.58 1766.22 1739.8 1826.12L1525.85 1879.18C1515.42 1934.9 1497.32 1987.91 1470.76 2038.1L1606.21 2211.51C1571.76 2260.56 1532.23 2305.65 1486.95 2345.89L1298.53 2232.56C1252.81 2264.67 1201.57 2290.35 1147.62 2306.77L1121.03 2525.4C1062.24 2536.29 1001.2 2540.41 941.291 2536.63L888.232 2322.67C832.507 2312.24 779.498 2294.14 729.316 2267.59L555.901 2403.04C506.854 2368.59 461.761 2329.06 421.525 2283.78L534.854 2095.36ZM652.155 1481.23C656.291 1475.75 660.385 1471.86 666.013 1470.41C671.642 1468.96 678.845 1468.34 687.604 1469.37L1055.17 1492.52C1058.36 1492.6 1060.74 1493.46 1063.07 1495.92C1067 1498.42 1068.51 1501.65 1069.2 1505.66C1069.9 1509.68 1069 1513.65 1066.5 1517.58L995.307 1613.98C991.151 1620.27 985.481 1623.32 979.852 1624.77C975.023 1626.24 970.235 1626.11 965.447 1625.99L957.464 1625.78L805.216 1614.63L860.618 1756.67C861.007 1757.08 861.38 1758.09 861.94 1759.6C862.499 1761.11 863.245 1763.13 864.38 1765.56C866.629 1771.21 867.302 1776.02 866.38 1780.79C866.234 1786.38 864.514 1791.12 860.398 1795.81L789.207 1892.22C786.709 1896.15 783.475 1897.66 779.464 1898.36C775.453 1899.05 771.483 1898.15 767.555 1895.65C765.202 1893.99 763.668 1891.55 762.134 1889.12L631.318 1545.4C627.556 1536.51 626.147 1529.28 626.292 1523.7C626.438 1518.11 628.977 1512.58 633.113 1507.1L652.155 1481.23ZM1306.08 2041.7C1310.93 2040.22 1315.84 2036.33 1319.99 2030.81L1338.28 2005.58C1342.43 2000.06 1344.18 1994.49 1344.33 1988.87C1344.47 1983.25 1343.04 1976.78 1339.26 1967.85L1202.34 1623.64C1200.8 1621.19 1199.26 1618.74 1196.9 1617.07C1192.96 1614.56 1188.98 1613.65 1184.95 1614.35C1180.92 1615.05 1177.68 1616.57 1175.17 1620.52L1105.3 1718.33C1101.97 1723.06 1100.22 1728.64 1099.29 1733.44C1099.17 1738.25 1099.82 1743.89 1102.1 1748.77C1104.36 1754.46 1105.88 1757.71 1106.66 1758.53L1164.68 1900.64L1011.81 1891.84C1010.23 1890.99 1007.83 1890.93 1003.02 1890.81C998.219 1890.68 993.392 1891.36 987.743 1892.82C982.895 1894.3 978.006 1897.39 973.834 1903.71L903.961 2001.51C901.453 2005.46 900.548 2009.45 901.244 2013.49C901.941 2017.52 903.459 2020.78 907.402 2023.29C909.763 2024.96 912.145 2025.82 915.349 2025.91L1284.39 2043.54C1293.98 2044.6 1301.21 2043.98 1306.08 2041.7Z" fill="white"/>
<path d="M2762.11 1906.46C2762.11 1843.95 2768.83 1787.52 2782.29 1737.17C2796.18 1686.39 2815.06 1641.24 2838.93 1601.74C2862.81 1562.24 2890.81 1528.17 2922.93 1499.52C2955.05 1470.87 2989.77 1447.22 3027.1 1428.55C3064.43 1409.89 3103.28 1396.21 3143.65 1387.53C3184.45 1378.42 3225.03 1373.86 3265.4 1373.86C3302.3 1373.86 3338.54 1377.33 3374.14 1384.28C3409.73 1390.79 3444.89 1400.12 3479.61 1412.28C3490.03 1416.18 3500.45 1420.09 3510.87 1423.99C3521.72 1427.47 3531.27 1432.03 3539.51 1437.67C3548.2 1443.31 3555.14 1450.47 3560.35 1459.15C3565.56 1467.84 3568.16 1478.9 3568.16 1492.36C3568.16 1507.99 3565.56 1521.01 3560.35 1531.43C3555.57 1541.41 3549.28 1549.44 3541.47 1555.52C3533.65 1561.59 3524.97 1565.93 3515.42 1568.54C3506.31 1571.14 3497.41 1572.44 3488.73 1572.44C3482.65 1572.44 3476.14 1571.58 3469.2 1569.84C3462.25 1567.67 3455.09 1565.07 3447.71 1562.03C3440.33 1558.99 3433.17 1555.52 3426.22 1551.61C3419.28 1547.27 3412.98 1543.15 3407.34 1539.24C3391.72 1532.73 3376.96 1527.95 3363.07 1524.91C3349.61 1521.44 3336.59 1519.05 3324 1517.75C3311.41 1516.02 3299.04 1515.15 3286.89 1515.15C3274.74 1514.71 3262.58 1514.5 3250.43 1514.5C3223.08 1514.5 3195.74 1517.75 3168.39 1524.26C3141.04 1530.34 3114.57 1540.11 3088.96 1553.56C3063.78 1566.58 3040.12 1583.08 3017.99 1603.05C2995.85 1623.01 2976.53 1646.89 2960.04 1674.67C2943.98 1702.01 2931.17 1733.27 2921.62 1768.42C2912.51 1803.58 2907.95 1842.87 2907.95 1886.27C2907.95 1958.33 2918.15 2019.31 2938.55 2069.23C2959.39 2118.71 2986.3 2158.87 3019.29 2189.68C3052.71 2220.5 3090.26 2242.86 3131.93 2256.75C3173.6 2270.2 3215.7 2276.93 3258.24 2276.93C3277.77 2276.93 3296.87 2275.85 3315.54 2273.68C3334.64 2271.07 3352.22 2268.03 3368.28 2264.56C3384.77 2260.65 3399.31 2256.53 3411.9 2252.19C3424.49 2247.41 3434.04 2242.64 3440.55 2237.87C3453.57 2226.58 3465.07 2218.12 3475.06 2212.47C3485.04 2206.4 3496.54 2203.36 3509.56 2203.36C3519.55 2203.36 3528.88 2204.44 3537.56 2206.61C3546.68 2208.78 3554.49 2212.69 3561 2218.33C3567.51 2223.54 3572.72 2230.49 3576.63 2239.17C3580.53 2247.85 3582.49 2258.7 3582.49 2271.72C3582.49 2289.95 3576.19 2306.66 3563.61 2321.86C3551.45 2336.61 3531.7 2350.5 3504.36 2363.53V2362.88C3495.24 2368.08 3481.78 2373.94 3463.99 2380.46C3446.62 2386.97 3426.87 2393.04 3404.74 2398.69C3383.03 2403.89 3360.03 2408.24 3335.72 2411.71C3311.41 2415.61 3287.54 2417.57 3264.1 2417.57C3210.71 2417.57 3161.23 2411.27 3115.65 2398.69C3070.51 2385.66 3029.27 2367.87 2991.94 2345.3C2955.05 2322.29 2922.28 2294.94 2893.63 2263.26C2864.98 2231.57 2840.89 2196.85 2821.36 2159.08C2801.82 2121.32 2787.06 2081.17 2777.08 2038.63C2767.1 1995.66 2762.11 1951.6 2762.11 1906.46Z" fill="white"/>
<path d="M3669.47 2006.08C3669.47 1949.65 3679.89 1896.69 3700.73 1847.21C3722 1797.29 3750.86 1753.88 3787.32 1716.99C3824.22 1679.66 3867.19 1650.36 3916.24 1629.09C3965.29 1607.39 4017.81 1596.54 4073.8 1596.54C4135.01 1596.54 4190.35 1607.39 4239.83 1629.09C4289.75 1650.36 4332.29 1679.66 4367.45 1716.99C4403.04 1753.88 4430.39 1797.29 4449.49 1847.21C4468.59 1896.69 4478.13 1949.65 4478.13 2006.08C4478.13 2047.31 4473.14 2086.16 4463.16 2122.62C4453.61 2159.08 4439.94 2192.51 4422.14 2222.89C4404.34 2253.27 4382.86 2280.62 4357.68 2304.93C4332.94 2328.8 4305.59 2349.2 4275.64 2366.13C4245.69 2382.63 4213.57 2395.21 4179.28 2403.89C4145.42 2413.01 4110.27 2417.57 4073.8 2417.57C4019.11 2417.57 3967.24 2407.8 3918.19 2388.27C3869.14 2368.3 3826.17 2340.52 3789.28 2304.93C3752.38 2268.9 3723.08 2225.71 3701.38 2175.36C3680.11 2124.57 3669.47 2068.15 3669.47 2006.08ZM3819.88 2006.08C3819.88 2047.31 3825.74 2084.64 3837.46 2118.06C3849.18 2151.49 3865.89 2180.13 3887.59 2204.01C3909.73 2227.45 3936.42 2245.68 3967.68 2258.7C3998.93 2271.29 4034.09 2277.58 4073.15 2277.58C4107.88 2277.58 4140.65 2271.72 4171.47 2260C4202.29 2248.28 4229.2 2231.14 4252.2 2208.57C4275.64 2185.56 4294.09 2157.13 4307.55 2123.27C4321.44 2089.42 4328.38 2050.35 4328.38 2006.08C4328.38 1969.61 4322.52 1935.11 4310.8 1902.55C4299.52 1869.56 4283.02 1840.91 4261.32 1816.61C4239.62 1792.3 4212.92 1772.98 4181.23 1758.66C4149.55 1744.33 4113.52 1737.17 4073.15 1737.17C4032.79 1737.17 3996.97 1744.33 3965.72 1758.66C3934.47 1772.98 3907.99 1792.3 3886.29 1816.61C3864.59 1840.91 3848.09 1869.56 3836.81 1902.55C3825.52 1935.11 3819.88 1969.61 3819.88 2006.08Z" fill="white"/>
<path d="M4559.91 2008.03C4559.91 1949 4569.68 1894.52 4589.21 1844.6C4609.18 1794.25 4636.53 1750.85 4671.25 1714.38C4706.41 1677.49 4747.86 1648.62 4795.61 1627.79C4843.36 1606.95 4895.23 1596.54 4951.22 1596.54C4976.4 1596.54 5001.36 1599.14 5026.1 1604.35C5050.84 1609.12 5074.28 1616.5 5096.42 1626.49C5118.99 1636.04 5139.82 1647.97 5158.92 1662.3C5178.02 1676.62 5194.73 1693.11 5209.06 1711.78C5209.06 1700.49 5209.06 1684.43 5209.06 1663.6C5209.06 1642.76 5208.84 1618.02 5208.4 1589.37C5208.4 1560.73 5208.19 1528.82 5207.75 1493.66C5207.32 1458.5 5206.89 1421.17 5206.45 1381.67H5151.11C5141.12 1381.67 5131.36 1382.76 5121.81 1384.93C5112.26 1387.1 5102.06 1388.18 5091.21 1388.18C5083.39 1388.18 5075.36 1386.45 5067.12 1382.98C5059.3 1379.07 5052.14 1373.86 5045.63 1367.35C5039.55 1360.4 5034.34 1352.16 5030 1342.61C5026.1 1332.62 5024.14 1321.34 5024.14 1308.75C5024.14 1286.18 5030 1268.82 5041.72 1256.66C5053.44 1244.51 5068.2 1238.43 5086 1238.43C5090.34 1238.43 5095.55 1238.65 5101.62 1239.08C5107.7 1239.08 5114.65 1240.17 5122.46 1242.34C5151.11 1242.77 5179.97 1242.56 5209.06 1241.69C5238.14 1240.39 5269.39 1239.52 5302.81 1239.08C5321.04 1239.08 5335.37 1245.38 5345.79 1257.97C5356.2 1270.55 5361.41 1287.26 5361.41 1308.1C5361.41 1322.86 5359.46 1334.36 5355.55 1342.61C5354.68 1370.82 5354.03 1405.76 5353.6 1447.43C5353.17 1488.67 5352.73 1532.73 5352.3 1579.61C5351.86 1626.49 5351.43 1674.23 5350.99 1722.85C5350.99 1771.46 5350.78 1817.04 5350.34 1859.58C5350.34 1901.68 5350.34 1939.01 5350.34 1971.57C5350.34 2004.12 5350.34 2027.78 5350.34 2042.54C5350.34 2085.07 5350.56 2123.49 5350.99 2157.78C5351.86 2191.64 5353.16 2218.33 5354.9 2237.87L5366.62 2230.7C5375.74 2225.49 5384.42 2220.94 5392.66 2217.03C5401.35 2213.12 5410.68 2210.74 5420.66 2209.87C5428.04 2209 5435.64 2209.87 5443.45 2212.47C5451.26 2214.64 5458.43 2218.55 5464.94 2224.19C5471.45 2229.4 5476.87 2236.56 5481.21 2245.68C5485.55 2254.79 5487.72 2265.86 5487.72 2278.88C5487.72 2297.11 5482.73 2311.87 5472.75 2323.16C5463.2 2334.01 5453.22 2341.61 5442.8 2345.95C5432.38 2350.72 5422.4 2355.71 5412.85 2360.92C5403.3 2365.7 5393.53 2370.69 5383.55 2375.9C5368.79 2383.71 5354.47 2391.09 5340.58 2398.03C5327.12 2404.98 5315.18 2408.45 5304.77 2408.45C5283.93 2408.45 5267 2398.69 5253.98 2379.15C5241.39 2359.19 5231.84 2332.71 5225.33 2299.72C5207.97 2317.52 5188.22 2333.58 5166.08 2347.9C5143.95 2362.22 5120.29 2374.6 5095.11 2385.01C5069.94 2395.43 5043.46 2403.46 5015.68 2409.1C4988.33 2414.75 4960.77 2417.57 4932.99 2417.57C4876.56 2417.57 4825.34 2406.93 4779.33 2385.66C4733.76 2364.39 4694.69 2335.31 4662.13 2298.42C4629.58 2261.52 4604.4 2218.33 4586.61 2168.85C4568.81 2118.93 4559.91 2065.32 4559.91 2008.03ZM4705.11 2008.03C4705.11 2042.32 4710.53 2075.74 4721.38 2108.3C4732.24 2140.42 4747.86 2169.07 4768.26 2194.24C4789.1 2219.42 4814.27 2239.6 4843.79 2254.79C4873.31 2269.99 4906.73 2277.58 4944.06 2277.58C4972.71 2277.58 5001.36 2273.02 5030 2263.91C5058.65 2254.36 5084.91 2241.12 5108.79 2224.19C5133.09 2206.83 5154.15 2185.99 5171.94 2161.69C5189.74 2136.95 5201.89 2109.17 5208.4 2078.35C5208.4 2060.55 5208.4 2046.01 5208.4 2034.72C5208.4 2023.44 5208.19 2013.89 5207.75 2006.08C5207.75 1997.83 5207.75 1990.45 5207.75 1983.94C5207.75 1976.99 5207.75 1969.18 5207.75 1960.5C5200.81 1929.25 5189.52 1900.16 5173.9 1873.25C5158.7 1845.91 5140.04 1822.25 5117.9 1802.28C5095.76 1782.31 5070.81 1766.69 5043.03 1755.4C5015.68 1743.68 4986.6 1737.82 4955.78 1737.82C4919.75 1737.82 4886.33 1744.33 4855.51 1757.36C4825.13 1770.38 4798.65 1788.83 4776.08 1812.7C4753.94 1836.14 4736.58 1864.57 4723.99 1897.99C4711.4 1930.98 4705.11 1967.66 4705.11 2008.03Z" fill="white"/>
<path d="M5675.63 2105.04C5683.88 2137.6 5696.03 2164.94 5712.09 2187.08C5728.59 2208.78 5747.03 2226.36 5767.44 2239.82C5787.84 2253.27 5809.32 2263.04 5831.89 2269.12C5854.9 2274.76 5877.25 2277.58 5898.96 2277.58C5932.81 2277.58 5962.98 2274.76 5989.46 2269.12C6015.94 2263.04 6038.51 2255.88 6057.17 2247.63C6076.27 2238.95 6091.68 2230.05 6103.4 2220.94C6115.12 2211.82 6123.37 2203.79 6128.14 2196.85C6132.48 2190.34 6137.26 2184.26 6142.47 2178.62C6148.11 2172.54 6153.97 2167.33 6160.05 2162.99C6166.56 2158.21 6172.85 2154.52 6178.93 2151.92C6185.44 2149.32 6191.52 2148.01 6197.16 2148.01C6218.86 2148.01 6235.57 2154.52 6247.29 2167.55C6259.45 2180.13 6265.52 2197.28 6265.52 2218.98C6265.52 2227.23 6262.49 2237.65 6256.41 2250.24C6250.33 2262.82 6239.05 2276.71 6222.55 2291.91C6204.32 2308.83 6183.92 2324.9 6161.35 2340.09C6139.21 2355.28 6114.69 2368.74 6087.78 2380.46C6060.86 2391.74 6031.56 2400.64 5999.88 2407.15C5968.62 2414.1 5934.77 2417.57 5898.31 2417.57C5855.33 2417.57 5816.05 2411.71 5780.46 2399.99C5744.86 2388.7 5712.96 2373.29 5684.75 2353.76C5656.53 2333.79 5632.01 2310.79 5611.17 2284.74C5590.34 2258.7 5572.98 2230.92 5559.08 2201.4C5545.19 2171.89 5534.78 2141.5 5527.83 2110.25C5520.89 2079 5517.41 2048.61 5517.41 2019.1C5517.41 1954.86 5527.83 1896.91 5548.67 1845.25C5569.5 1793.17 5598.15 1748.67 5634.61 1711.78C5671.07 1674.88 5714.26 1646.45 5764.18 1626.49C5814.1 1606.52 5868.14 1596.54 5926.3 1596.54C5967.97 1596.54 6007.04 1602.83 6043.5 1615.42C6079.96 1627.57 6112.3 1644.93 6140.51 1667.5C6169.16 1689.64 6193.04 1716.34 6212.13 1747.59C6231.67 1778.41 6245.34 1812.48 6253.15 1849.81C6261.84 1857.19 6268.13 1866.96 6272.04 1879.11C6276.38 1890.83 6278.55 1902.55 6278.55 1914.27C6278.55 1933.8 6271.82 1949.86 6258.36 1962.45C6245.34 1974.61 6228.85 1983.07 6208.88 1987.84C6165.04 1999.13 6121.2 2009.55 6077.36 2019.1C6033.52 2028.65 5989.46 2037.98 5945.19 2047.09C5900.91 2056.21 5856.2 2065.54 5811.06 2075.09C5766.35 2084.64 5721.21 2094.62 5675.63 2105.04ZM5664.56 1984.59C5738.35 1967.23 5813.01 1950.95 5888.54 1935.76C5964.07 1920.56 6040.9 1903.64 6119.03 1884.97C6111.65 1865 6101.67 1846.12 6089.08 1828.33C6076.49 1810.09 6061.73 1794.25 6044.8 1780.8C6027.87 1767.34 6008.99 1756.71 5988.16 1748.89C5967.76 1741.08 5945.62 1737.17 5921.75 1737.17C5884.85 1737.17 5851.21 1743.25 5820.83 1755.4C5790.88 1767.12 5764.83 1783.83 5742.69 1805.54C5720.56 1826.81 5702.76 1852.85 5689.3 1883.67C5675.85 1914.05 5667.6 1947.69 5664.56 1984.59Z" fill="white"/>
</svg>
