<svg width="5256" height="2141" viewBox="0 0 5256 2141" fill="none" xmlns="http://www.w3.org/2000/svg">
<path d="M1809.09 436.678C1809.09 402.501 1799.16 377.465 1779.29 361.569C1760.21 345.673 1733.98 337.724 1700.6 337.724C1677.55 337.724 1656.09 340.506 1636.22 346.07C1617.15 351.634 1600.46 358.787 1586.15 367.53V799.111C1579 800.7 1569.46 802.687 1557.54 805.072C1545.61 807.456 1532.1 808.648 1517 808.648C1489.18 808.648 1468.52 803.482 1455.01 793.15C1441.49 782.817 1434.74 764.536 1434.74 738.308V355.608C1434.74 336.532 1438.71 321.034 1446.66 309.111C1454.61 297.189 1466.93 285.665 1483.62 274.537C1506.67 258.641 1537.27 245.527 1575.42 235.194C1613.57 224.067 1655.69 218.503 1701.79 218.503C1783.66 218.503 1846.85 236.784 1891.36 273.345C1936.66 309.111 1959.31 361.966 1959.31 431.909V799.111C1952.95 800.7 1943.42 802.687 1930.7 805.072C1918.78 807.456 1905.66 808.648 1891.36 808.648C1862.74 808.648 1841.68 803.482 1828.17 793.15C1815.45 782.817 1809.09 764.536 1809.09 738.308V436.678Z" fill="#7F1E6A"/>
<path d="M2425.92 436.678C2425.92 402.501 2415.99 377.465 2396.12 361.569C2377.04 345.673 2350.81 337.724 2317.43 337.724C2294.38 337.724 2272.92 340.506 2253.05 346.07C2233.98 351.634 2217.29 358.787 2202.98 367.53V799.111C2195.83 800.7 2186.29 802.687 2174.37 805.072C2162.44 807.456 2148.93 808.648 2133.83 808.648C2106.01 808.648 2085.35 803.482 2071.84 793.15C2058.32 782.817 2051.57 764.536 2051.57 738.308V355.608C2051.57 336.532 2055.54 321.034 2063.49 309.111C2071.44 297.189 2083.76 285.665 2100.45 274.537C2123.5 258.641 2154.1 245.527 2192.25 235.194C2230.4 224.067 2272.52 218.503 2318.62 218.503C2400.49 218.503 2463.68 236.784 2508.19 273.345C2553.49 309.111 2576.14 361.966 2576.14 431.909V799.111C2569.78 800.7 2560.25 802.687 2547.53 805.072C2535.61 807.456 2522.49 808.648 2508.19 808.648C2479.57 808.648 2458.51 803.482 2445 793.15C2432.28 782.817 2425.92 764.536 2425.92 738.308V436.678Z" fill="#7F1E6A"/>
<path d="M2791.2 585.705C2802.32 626.24 2822.99 655.648 2853.19 673.928C2883.39 692.209 2920.75 701.349 2965.26 701.349C2998.64 701.349 3029.24 696.58 3057.06 687.043C3085.67 676.71 3108.72 665.98 3126.21 654.853C3137.34 661.211 3146.48 669.954 3153.63 681.082C3160.78 692.209 3164.36 704.131 3164.36 716.848C3164.36 732.744 3158.8 747.051 3147.67 759.768C3137.34 771.69 3122.63 782.022 3103.56 790.765C3085.28 799.508 3063.42 806.264 3037.98 811.033C3012.55 815.802 2985.13 818.186 2955.72 818.186C2908.83 818.186 2865.91 811.828 2826.96 799.111C2788.81 786.394 2755.83 767.318 2728.01 741.884C2700.99 715.656 2679.53 683.466 2663.63 645.315C2648.53 607.164 2640.98 562.655 2640.98 511.788C2640.98 462.509 2648.53 419.59 2663.63 383.029C2678.73 346.467 2699 315.867 2724.43 291.228C2750.66 266.589 2780.86 248.309 2815.04 236.386C2849.22 224.464 2885.38 218.503 2923.53 218.503C2962.48 218.503 2998.24 224.862 3030.83 237.579C3063.42 249.501 3091.24 266.589 3114.29 288.844C3137.34 310.304 3155.22 336.532 3167.94 367.53C3181.45 397.733 3188.2 430.717 3188.2 466.483C3188.2 488.738 3182.24 505.429 3170.32 516.556C3159.19 527.684 3143.3 534.837 3122.63 538.016L2791.2 585.705ZM2923.53 331.763C2884.59 331.763 2852 344.878 2825.77 371.106C2799.54 396.54 2784.84 433.101 2781.66 480.79L3046.33 441.447C3043.15 412.039 3031.63 386.605 3011.76 365.145C2991.89 342.891 2962.48 331.763 2923.53 331.763Z" fill="#7F1E6A"/>
<path d="M3537.74 338.917C3513.89 338.917 3491.64 342.891 3470.97 350.839C3451.1 358.787 3433.62 370.312 3418.51 385.413C3404.21 400.514 3392.68 419.192 3383.94 441.447C3375.2 463.702 3370.83 489.533 3370.83 518.941C3370.83 577.757 3386.32 622.266 3417.32 652.469C3448.32 681.876 3488.46 696.58 3537.74 696.58C3565.55 696.58 3589.4 693.004 3609.27 685.85C3629.93 677.902 3648.21 669.557 3664.11 660.814C3675.24 668.762 3683.98 677.902 3690.34 688.235C3697.49 698.567 3701.07 710.49 3701.07 724.001C3701.07 751.025 3685.17 773.279 3653.38 790.765C3621.59 808.251 3578.67 816.994 3524.62 816.994C3479.32 816.994 3437.59 811.033 3399.44 799.111C3362.08 786.394 3329.89 767.716 3302.87 743.077C3275.85 717.643 3254.78 686.248 3239.68 648.892C3225.38 611.536 3218.22 568.219 3218.22 518.941C3218.22 468.868 3226.17 425.153 3242.07 387.797C3257.96 349.647 3279.42 318.252 3306.45 293.613C3334.26 268.179 3366.45 249.501 3403.02 237.579C3439.58 224.862 3478.52 218.503 3519.85 218.503C3573.1 218.503 3615.63 228.041 3647.42 247.116C3679.21 265.397 3695.11 288.049 3695.11 315.072C3695.11 327.789 3691.53 339.314 3684.38 349.647C3678.02 359.979 3670.47 368.325 3661.73 374.683C3645.83 365.94 3627.95 357.992 3608.08 350.839C3589 342.891 3565.55 338.917 3537.74 338.917Z" fill="#7F1E6A"/>
<path d="M3914.92 625.048C3914.92 650.481 3922.47 668.762 3937.57 679.889C3953.47 691.017 3975.33 696.58 4003.15 696.58C4016.66 696.58 4030.17 694.991 4043.68 691.812C4057.99 688.632 4070.7 684.658 4081.83 679.889C4088.19 686.248 4093.36 694.196 4097.33 703.734C4102.1 712.477 4104.48 722.809 4104.48 734.731C4104.48 758.575 4093.75 778.446 4072.29 794.342C4050.83 809.443 4016.26 816.994 3968.57 816.994C3905.78 816.994 3856.11 803.085 3819.54 775.266C3783.78 746.653 3765.9 699.76 3765.9 634.585V87.3599C3772.25 85.7703 3781.39 83.7833 3793.32 81.3989C3806.03 79.0145 3819.54 77.8223 3833.85 77.8223C3861.67 77.8223 3881.94 82.9885 3894.65 93.321C3908.17 103.653 3914.92 121.934 3914.92 148.163V247.116H4090.18C4094.15 253.475 4097.73 261.82 4100.91 272.153C4104.09 282.485 4105.68 293.613 4105.68 305.535C4105.68 326.2 4100.91 341.301 4091.37 350.839C4081.83 360.377 4069.11 365.145 4053.22 365.145H3914.92V625.048Z" fill="#7F1E6A"/>
<path d="M625.277 119.221C625.277 136.132 620.627 150.929 611.326 163.612C602.025 175.45 591.456 184.751 579.618 191.515C557.634 177.141 533.113 164.035 506.056 152.197C478.999 140.36 445.6 134.441 405.859 134.441C333.989 134.441 276.492 157.693 233.369 204.198C191.092 250.703 169.954 317.923 169.954 405.859C169.954 495.487 191.938 562.707 235.906 607.521C279.874 652.335 339.062 674.741 413.469 674.741C452.364 674.741 485.763 669.668 513.666 659.522C542.414 648.53 567.78 635.846 589.765 621.472C601.602 629.082 611.326 639.651 618.936 653.18C626.546 665.863 630.35 680.66 630.35 697.571C630.35 711.945 626.546 725.051 618.936 736.889C611.326 748.726 598.643 759.295 580.886 768.596C563.976 778.743 539.878 788.044 508.593 796.499C478.153 805.8 440.104 810.451 394.445 810.451C338.639 810.451 286.638 802.418 238.442 786.353C191.092 769.442 149.661 744.498 114.148 711.522C78.6353 677.701 50.7324 635.424 30.4395 584.691C10.1465 533.959 0 474.348 0 405.859C0 339.907 10.1465 281.988 30.4395 232.101C50.7324 181.368 78.2125 139.091 112.88 105.27C148.392 70.6026 189.401 44.3909 235.906 26.6345C283.256 8.87816 333.143 0 385.567 0C421.925 0 454.901 3.38217 484.495 10.1465C514.089 16.0653 539.455 24.5207 560.593 35.5127C581.732 46.5047 597.797 59.1879 608.789 73.5621C619.781 87.9362 625.277 103.156 625.277 119.221Z" fill="#7F1E6A"/>
<path d="M4238.69 812.987C4211.64 812.987 4190.07 804.955 4174.01 788.889C4158.79 772.824 4151.18 751.263 4151.18 724.206V128.099C4151.18 101.042 4158.79 79.9036 4174.01 64.6839C4190.07 48.6186 4211.64 40.5859 4238.69 40.5859H4658.5C4662.73 47.3503 4666.54 56.2285 4669.92 67.2205C4673.3 78.2125 4674.99 90.4729 4674.99 104.001C4674.99 125.986 4669.92 142.896 4659.77 154.734C4649.63 166.572 4635.67 172.49 4617.92 172.49H4310.99V352.59H4620.45C4624.68 359.355 4628.49 368.233 4631.87 379.225C4636.1 389.371 4638.21 401.209 4638.21 414.738C4638.21 460.397 4618.76 483.226 4579.87 483.226H4310.99V679.815H4663.58C4667.8 686.579 4671.61 695.88 4674.99 707.717C4679.22 718.71 4681.33 730.97 4681.33 744.499C4681.33 790.158 4661.89 812.987 4622.99 812.987H4238.69Z" fill="#FD9100"/>
<path d="M5240.51 690.62C5240.51 708.901 5236.54 723.605 5228.59 734.732C5220.64 745.859 5208.72 756.589 5192.82 766.922C5172.95 779.639 5146.73 791.163 5114.14 801.496C5081.55 812.623 5043.8 818.187 5000.88 818.187C4905.5 818.187 4829.6 793.945 4773.17 745.462C4717.53 696.184 4689.71 621.075 4689.71 520.134C4689.71 467.677 4697.26 422.77 4712.36 385.414C4727.46 347.263 4747.73 315.868 4773.17 291.229C4799.39 266.59 4829.99 248.31 4864.97 236.387C4899.94 224.465 4937.69 218.504 4978.23 218.504C4999.69 218.504 5019.95 220.889 5039.03 225.658C5058.1 229.632 5075.19 234.798 5090.29 241.156V25.3658C5096.65 22.9814 5105.79 20.9944 5117.72 19.4048C5130.43 17.0203 5143.94 15.8281 5158.25 15.8281C5186.86 15.8281 5207.53 20.9944 5220.25 31.3269C5233.76 41.6594 5240.51 59.94 5240.51 86.1687V690.62ZM5090.29 362.762C5078.37 355.609 5064.46 349.648 5048.57 344.879C5032.67 340.11 5015.58 337.725 4997.3 337.725C4952.79 337.725 4915.83 352.032 4886.43 380.645C4857.02 409.258 4842.31 456.152 4842.31 521.326C4842.31 582.526 4856.22 627.433 4884.04 656.046C4912.65 683.864 4951.2 697.774 4999.69 697.774C5020.35 697.774 5037.84 695.389 5052.14 690.62C5067.24 685.851 5079.96 680.288 5090.29 673.929V362.762Z" fill="#FD9100"/>
<path fill-rule="evenodd" clip-rule="evenodd" d="M581.728 427.364C577.333 460.013 577.019 493.284 580.796 526.01L696.165 548.699C702.888 578.534 714.287 607.829 729.799 634.245L662.319 732.846C681.917 759.3 704.461 782.863 729.372 802.946L826.912 735.568C852.441 752.154 880.348 764.093 909.462 771.957L929.356 890.647C961.421 895.036 993.524 895.34 1025.67 891.557L1047.8 773.264C1077.06 765.951 1105.18 754.542 1131.02 738.441L1227.27 807.65C1252.56 787.457 1275.55 764.324 1295.64 738.828L1230.03 638.97C1246.04 612.853 1257.98 584.362 1265.28 554.075L1382.22 533.581C1386.61 500.932 1386.93 467.661 1383.15 434.935L1267.78 412.246C1261.06 382.411 1249.66 353.116 1234.15 326.7L1301.63 228.099C1282.03 201.645 1259.49 178.082 1234.58 157.999L1137.04 225.377C1111.51 208.791 1083.6 196.852 1054.49 188.988L1034.59 70.298C1002.53 65.9088 970.424 65.6055 938.281 69.3881L916.149 187.681C886.892 194.994 858.764 206.403 832.926 222.504L736.677 153.296C711.385 173.488 688.4 196.621 668.311 222.117L733.916 321.975C717.908 348.093 705.964 376.584 698.672 406.87L581.728 427.364ZM776.002 422.672C781.804 300.06 897.942 265.06 988.032 354.501C1074.98 273.014 1198.25 321.469 1191.96 444.745C1186.16 567.357 971.23 690.924 971.23 690.924C971.23 690.924 770.2 545.284 776.002 422.672Z" fill="#7F1E6A"/>
<path fill-rule="evenodd" clip-rule="evenodd" d="M2050.3 1006.71C2071.7 1031.81 2088.55 1059.5 2101.46 1089.68L2228.51 1092.85C2238.18 1126.03 2243.71 1160.5 2245.01 1195.64L2124.74 1238.53C2121.93 1271.23 2114.59 1302.81 2102.13 1333.34L2190.18 1425.89C2173.39 1456.5 2153.09 1484.57 2129.27 1510.1L2013.81 1455.45C1988.71 1476.85 1961.03 1493.7 1930.84 1506.61L1927.77 1634.26C1894.59 1643.93 1860.12 1649.47 1824.98 1650.77L1782.7 1530.4C1749.99 1527.59 1718.42 1520.25 1687.89 1507.79L1595.34 1595.84C1564.73 1579.05 1536.66 1558.75 1511.12 1534.93L1565.77 1419.47C1544.38 1394.37 1527.52 1366.69 1514.61 1336.5L1386.96 1333.43C1377.29 1300.25 1371.76 1265.78 1370.46 1230.64L1490.73 1187.75C1493.54 1155.05 1500.87 1123.47 1513.34 1092.94L1425.29 1000.39C1442.08 969.783 1462.38 941.711 1486.2 916.178L1601.66 970.829C1626.76 949.431 1654.44 932.58 1684.62 919.669L1687.7 792.019C1720.88 782.349 1755.35 776.814 1790.49 775.512L1833.38 895.782C1866.08 898.594 1897.65 905.93 1928.19 918.394L2020.74 830.34C2051.35 847.134 2079.42 867.438 2104.95 891.25L2050.3 1006.71ZM1878.2 1374.13L1793.51 1389.11C1787.46 1390.37 1783.42 1395.96 1784.68 1402.01C1785.93 1408.05 1791.52 1412.1 1797.57 1410.84L1882.26 1395.85C1888.31 1394.6 1892.35 1389.01 1891.09 1382.96C1889.83 1376.91 1884.25 1372.87 1878.2 1374.13ZM1798.63 1419.24L1883.32 1404.25C1889.31 1403.59 1895.49 1407.68 1896.21 1413.09C1897.47 1419.14 1893.42 1424.72 1887.38 1425.98L1802.69 1440.97C1796.64 1442.23 1791.05 1438.18 1789.79 1432.13C1788.54 1426.09 1792.58 1420.5 1798.63 1419.24ZM1790.73 1009.81L1780.23 950.231C1778.18 939.936 1768.74 932.98 1758.44 935.032C1748.15 937.085 1741.19 946.525 1743.24 956.82L1753.75 1016.4C1755.8 1026.7 1765.24 1033.65 1775.53 1031.6C1785.73 1030.55 1792.79 1020.11 1790.73 1009.81ZM1554.63 1210.28L1614.93 1206.68C1624.92 1205.58 1633.91 1213.7 1635.12 1224.69C1636 1232.69 1630.77 1240.35 1622.99 1243.22C1621.11 1244.44 1619.11 1244.66 1617.11 1244.88L1556.81 1248.48C1546.7 1248.58 1536.72 1240.57 1536.62 1230.47C1536.41 1219.36 1544.53 1210.38 1554.63 1210.28ZM1985.91 1140.87L2043.77 1123.5C2053.29 1120.12 2064 1125.76 2067.63 1136.26C2071.01 1145.78 2064.39 1156.74 2054.86 1160.12L1997.01 1177.48C1995.06 1177.97 1993.1 1178.45 1990.91 1177.95C1982.62 1177.92 1975.08 1172.53 1973.15 1164.72C1970.5 1153.98 1976.15 1143.27 1985.91 1140.87ZM1605.12 1349.7L1658.06 1320.97C1667.6 1315.74 1678.36 1319.7 1683.59 1329.23C1687.82 1338.68 1684.87 1349.53 1675.33 1354.76L1622.38 1383.49C1621.77 1384 1620.87 1384.17 1619.83 1384.37C1619.02 1384.53 1618.12 1384.7 1617.2 1385.06C1609.01 1386.37 1601.26 1382.67 1596.86 1375.23C1592.63 1365.78 1595.58 1354.93 1605.12 1349.7ZM1636.18 1100.21L1591.85 1059.05C1583.87 1051.73 1583.6 1039.59 1590.92 1031.6C1594.11 1028.95 1597.3 1026.31 1601.36 1025.47C1607.67 1024.67 1613.95 1026.11 1618.37 1030.68L1662.71 1071.84C1670.69 1079.16 1670.95 1091.31 1663.63 1099.29C1654.97 1106.8 1643.26 1107.97 1636.18 1100.21ZM2044.14 1273.27L1984.54 1264.51C1973.79 1262.88 1965.04 1270.3 1963.41 1281.05C1962.69 1291.38 1969.2 1300.54 1979.95 1302.18L2039.55 1310.94C2040.3 1311.21 2041.2 1311.06 2042.25 1310.89C2043.07 1310.75 2043.97 1310.61 2044.96 1310.63C2053.09 1309.05 2059.1 1302.91 2060.68 1294.4C2061.4 1284.07 2054.89 1274.91 2044.14 1273.27ZM1929.15 1048.24L1956.62 994.336C1961.6 984.717 1957.67 973.222 1948.05 968.245C1944.14 966.854 1940.24 965.464 1936.14 966.075C1929.94 967.493 1924.54 971.009 1921.96 976.819L1894.49 1030.72C1889.51 1040.34 1893.44 1051.84 1903.06 1056.81C1913.78 1060.89 1925.18 1057.95 1929.15 1048.24ZM1778.14 1056.56C1805.92 1051.24 1834.7 1054.91 1860.41 1066.64C1894.7 1082.07 1920.81 1109.86 1934.35 1145.47C1947.37 1180.45 1946.41 1218.96 1930.98 1253.26L1884.62 1356.74C1883.88 1358.45 1882.6 1359.53 1880.78 1359.97L1786.1 1376.72C1784.28 1377.16 1781.97 1376.37 1780.9 1375.09L1701.8 1294.02C1661.49 1251.94 1650.72 1191.03 1674.32 1137.85C1693.47 1094.96 1732.33 1064.47 1778.14 1056.56Z" fill="#FD9100"/>
<path fill-rule="evenodd" clip-rule="evenodd" d="M414.109 1616.38C427.797 1661.62 449.244 1704.61 476.092 1742.98L380.848 1900.75C414.506 1938.76 452.241 1971.96 493.297 2000.91L638.824 1887.62C680.842 1909.95 725.243 1925.19 771.929 1934.02L816.095 2113.43C866.295 2116.68 917.457 2113.32 966.742 2104.27L989.341 1921.06C1034.57 1907.37 1077.56 1885.92 1115.92 1859.06L1273.67 1954.33C1311.67 1920.66 1344.86 1882.92 1373.81 1841.86L1260.53 1696.31C1282.86 1654.28 1298.1 1609.88 1306.92 1563.18L1486.31 1519.01C1489.56 1468.81 1486.19 1417.64 1477.15 1368.34L1293.96 1345.74C1280.28 1300.5 1258.83 1257.51 1231.98 1219.14L1327.22 1061.36C1293.57 1023.35 1255.83 990.157 1214.77 961.207L1069.25 1074.5C1027.23 1052.17 982.829 1036.92 936.143 1028.1L891.977 848.684C841.777 845.433 790.615 848.799 741.33 857.845L718.731 1041.06C673.499 1054.75 630.517 1076.2 592.154 1103.05L434.401 1007.79C396.398 1041.45 363.207 1079.19 334.262 1120.26L447.54 1265.81C425.211 1307.83 409.968 1352.24 401.149 1398.93L221.762 1443.1C218.512 1493.31 221.878 1544.48 230.923 1593.77L414.109 1616.38ZM589.898 1233.37C593.641 1229 597.266 1225.96 602.049 1225.03C606.831 1224.11 612.889 1223.97 620.162 1225.28L926.436 1263.6C929.102 1263.83 931.043 1264.67 932.867 1266.85C936.024 1269.14 937.123 1271.93 937.497 1275.32C937.871 1278.71 936.912 1281.99 934.619 1285.14L870.1 1362.13C866.299 1367.17 861.399 1369.43 856.616 1370.35C852.5 1371.34 848.501 1370.99 844.503 1370.64L844.502 1370.63L837.836 1370.05L711.057 1352.87L750.079 1474.56C750.383 1474.92 750.643 1475.79 751.033 1477.08C751.424 1478.38 751.944 1480.1 752.768 1482.19C754.358 1487.03 754.673 1491.09 753.656 1495.03C753.246 1499.7 751.562 1503.59 747.878 1507.29L683.358 1584.28C681.066 1587.44 678.283 1588.54 674.892 1588.91C671.5 1589.29 668.226 1588.33 665.069 1586.04C663.187 1584.53 662.029 1582.41 660.872 1580.29L660.872 1580.29L569.161 1285.98C566.472 1278.35 565.666 1272.24 566.076 1267.57C566.485 1262.9 568.895 1258.41 572.637 1254.03L589.898 1233.37ZM1108 1735.99C1112.13 1735 1116.44 1732 1120.2 1727.6L1136.8 1707.43C1140.55 1703.03 1142.3 1698.46 1142.72 1693.76C1143.13 1689.07 1142.26 1683.58 1139.56 1675.91L1042.77 1380.89C1041.61 1378.76 1040.45 1376.63 1038.56 1375.11C1035.39 1372.8 1032.11 1371.84 1028.7 1372.22C1025.3 1372.59 1022.5 1373.7 1020.2 1376.88L956.715 1455.1C953.686 1458.89 951.936 1463.46 950.914 1467.43C950.561 1471.45 950.818 1476.21 952.471 1480.41C954.066 1485.28 955.169 1488.08 955.779 1488.8L996.987 1610.68L869.573 1595.44C868.294 1594.65 866.287 1594.48 862.273 1594.12C858.26 1593.77 854.187 1594.09 849.387 1595.02C845.255 1596.01 841.006 1598.34 837.191 1603.41L773.702 1681.63C771.401 1684.81 770.437 1688.1 770.812 1691.51C771.187 1694.93 772.289 1697.73 775.457 1700.03C777.346 1701.55 779.294 1702.4 781.97 1702.63L1089.76 1736.42C1097.73 1737.79 1103.81 1737.65 1108 1735.99Z" fill="#43ACB1"/>
<path d="M2311.92 1595.73C2311.92 1543.41 2317.55 1496.18 2328.82 1454.04C2340.44 1411.53 2356.25 1373.75 2376.23 1340.68C2396.21 1307.62 2419.65 1279.1 2446.53 1255.12C2473.42 1231.14 2502.48 1211.34 2533.73 1195.72C2564.97 1180.1 2597.49 1168.65 2631.28 1161.39C2665.43 1153.76 2699.4 1149.94 2733.19 1149.94C2764.07 1149.94 2794.41 1152.85 2824.2 1158.66C2853.99 1164.11 2883.42 1171.92 2912.49 1182.09C2921.21 1185.36 2929.93 1188.63 2938.65 1191.9C2947.73 1194.81 2955.72 1198.63 2962.62 1203.35C2969.89 1208.07 2975.7 1214.07 2980.06 1221.33C2984.42 1228.6 2986.6 1237.86 2986.6 1249.13C2986.6 1262.21 2984.42 1273.11 2980.06 1281.83C2976.07 1290.18 2970.8 1296.9 2964.26 1301.99C2957.72 1307.08 2950.45 1310.71 2942.46 1312.89C2934.83 1315.07 2927.38 1316.16 2920.12 1316.16C2915.03 1316.16 2909.58 1315.43 2903.77 1313.98C2897.95 1312.16 2891.96 1309.98 2885.78 1307.44C2879.61 1304.9 2873.61 1301.99 2867.8 1298.72C2861.99 1295.09 2856.72 1291.64 2851.99 1288.37C2838.91 1282.92 2826.56 1278.92 2814.94 1276.38C2803.67 1273.47 2792.77 1271.47 2782.24 1270.38C2771.7 1268.93 2761.35 1268.2 2751.17 1268.2C2741 1267.84 2730.83 1267.66 2720.65 1267.66C2697.77 1267.66 2674.88 1270.38 2651.99 1275.83C2629.1 1280.92 2606.94 1289.09 2585.5 1300.35C2564.43 1311.25 2544.63 1325.06 2526.1 1341.77C2507.57 1358.49 2491.4 1378.47 2477.59 1401.72C2464.15 1424.61 2453.43 1450.77 2445.44 1480.2C2437.81 1509.63 2434 1542.51 2434 1578.84C2434 1639.15 2442.53 1690.2 2459.61 1731.98C2477.05 1773.4 2499.58 1807 2527.19 1832.8C2555.16 1858.59 2586.59 1877.3 2621.47 1888.93C2656.35 1900.19 2691.59 1905.82 2727.19 1905.82C2743.54 1905.82 2759.53 1904.92 2775.15 1903.1C2791.14 1900.92 2805.85 1898.38 2819.3 1895.47C2833.1 1892.2 2845.27 1888.75 2855.81 1885.12C2866.35 1881.12 2874.34 1877.12 2879.79 1873.13C2890.69 1863.68 2900.32 1856.6 2908.67 1851.87C2917.03 1846.79 2926.66 1844.24 2937.56 1844.24C2945.91 1844.24 2953.72 1845.15 2960.99 1846.97C2968.62 1848.78 2975.16 1852.05 2980.61 1856.78C2986.06 1861.14 2990.42 1866.95 2993.69 1874.22C2996.96 1881.48 2998.59 1890.57 2998.59 1901.46C2998.59 1916.72 2993.33 1930.71 2982.79 1943.43C2972.62 1955.78 2956.09 1967.41 2933.2 1978.31V1977.76C2925.57 1982.12 2914.3 1987.03 2899.41 1992.48C2884.87 1997.93 2868.34 2003.01 2849.81 2007.74C2831.65 2012.1 2812.39 2015.73 2792.05 2018.63C2771.7 2021.9 2751.72 2023.54 2732.1 2023.54C2687.41 2023.54 2645.99 2018.27 2607.84 2007.74C2570.06 1996.84 2535.54 1981.94 2504.3 1963.05C2473.42 1943.79 2445.99 1920.9 2422.01 1894.38C2398.03 1867.86 2377.86 1838.79 2361.51 1807.18C2345.17 1775.58 2332.81 1741.97 2324.46 1706.36C2316.1 1670.39 2311.92 1633.52 2311.92 1595.73Z" fill="#43ACB1"/>
<path d="M3071.4 1679.11C3071.4 1631.88 3080.12 1587.56 3097.56 1546.14C3115.36 1504.36 3139.52 1468.03 3170.04 1437.14C3200.93 1405.9 3236.89 1381.37 3277.95 1363.57C3319 1345.41 3362.97 1336.32 3409.83 1336.32C3461.06 1336.32 3507.38 1345.41 3548.8 1363.57C3590.58 1381.37 3626.19 1405.9 3655.62 1437.14C3685.41 1468.03 3708.3 1504.36 3724.29 1546.14C3740.27 1587.56 3748.26 1631.88 3748.26 1679.11C3748.26 1713.63 3744.09 1746.15 3735.73 1776.67C3727.74 1807.18 3716.29 1835.16 3701.4 1860.59C3686.5 1886.02 3668.52 1908.91 3647.44 1929.26C3626.73 1949.24 3603.84 1966.32 3578.78 1980.49C3553.71 1994.29 3526.82 2004.83 3498.12 2012.1C3469.78 2019.72 3440.35 2023.54 3409.83 2023.54C3364.06 2023.54 3320.64 2015.37 3279.58 1999.02C3238.53 1982.3 3202.56 1959.05 3171.68 1929.26C3140.8 1899.1 3116.27 1862.95 3098.11 1820.81C3080.3 1778.3 3071.4 1731.07 3071.4 1679.11ZM3197.29 1679.11C3197.29 1713.63 3202.2 1744.87 3212.01 1772.85C3221.82 1800.83 3235.8 1824.8 3253.97 1844.79C3272.5 1864.41 3294.84 1879.67 3321 1890.57C3347.16 1901.1 3376.59 1906.37 3409.29 1906.37C3438.35 1906.37 3465.78 1901.46 3491.58 1891.66C3517.38 1881.85 3539.9 1867.49 3559.16 1848.6C3578.78 1829.35 3594.22 1805.55 3605.48 1777.21C3617.11 1748.87 3622.92 1716.17 3622.92 1679.11C3622.92 1648.6 3618.01 1619.71 3608.2 1592.46C3598.76 1564.85 3584.95 1540.87 3566.79 1520.53C3548.62 1500.18 3526.28 1484.01 3499.75 1472.02C3473.23 1460.03 3443.08 1454.04 3409.29 1454.04C3375.5 1454.04 3345.53 1460.03 3319.37 1472.02C3293.21 1484.01 3271.05 1500.18 3252.88 1520.53C3234.71 1540.87 3220.91 1564.85 3211.46 1592.46C3202.02 1619.71 3197.29 1648.6 3197.29 1679.11Z" fill="#43ACB1"/>
<path d="M3816.71 1680.75C3816.71 1631.34 3824.89 1585.74 3841.24 1543.96C3857.95 1501.81 3880.84 1465.48 3909.9 1434.96C3939.33 1404.08 3974.03 1379.92 4013.99 1362.48C4053.96 1345.04 4097.38 1336.32 4144.24 1336.32C4165.32 1336.32 4186.21 1338.5 4206.92 1342.86C4227.63 1346.86 4247.25 1353.04 4265.77 1361.39C4284.67 1369.39 4302.11 1379.38 4318.09 1391.37C4334.08 1403.36 4348.07 1417.16 4360.06 1432.78C4360.06 1423.34 4360.06 1409.9 4360.06 1392.46C4360.06 1375.02 4359.87 1354.31 4359.51 1330.33C4359.51 1306.35 4359.33 1279.65 4358.97 1250.22C4358.6 1220.79 4358.24 1189.54 4357.88 1156.48H4311.55C4303.2 1156.48 4295.02 1157.39 4287.03 1159.21C4279.04 1161.02 4270.5 1161.93 4261.41 1161.93C4254.88 1161.93 4248.15 1160.48 4241.25 1157.57C4234.71 1154.3 4228.72 1149.94 4223.27 1144.49C4218.18 1138.68 4213.82 1131.78 4210.19 1123.78C4206.92 1115.43 4205.28 1105.98 4205.28 1095.44C4205.28 1076.55 4210.19 1062.02 4220 1051.85C4229.81 1041.67 4242.16 1036.59 4257.05 1036.59C4260.69 1036.59 4265.05 1036.77 4270.13 1037.13C4275.22 1037.13 4281.03 1038.04 4287.57 1039.86C4311.55 1040.22 4335.71 1040.04 4360.06 1039.31C4384.4 1038.22 4410.56 1037.49 4438.53 1037.13C4453.79 1037.13 4465.78 1042.4 4474.5 1052.94C4483.22 1063.47 4487.58 1077.46 4487.58 1094.9C4487.58 1107.25 4485.95 1116.88 4482.68 1123.78C4481.95 1147.4 4481.4 1176.65 4481.04 1211.52C4480.68 1246.04 4480.31 1282.92 4479.95 1322.15C4479.59 1361.39 4479.22 1401.36 4478.86 1442.05C4478.86 1482.74 4478.68 1520.89 4478.32 1556.49C4478.32 1591.74 4478.32 1622.98 4478.32 1650.23C4478.32 1677.48 4478.32 1697.28 4478.32 1709.63C4478.32 1745.24 4478.5 1777.39 4478.86 1806.09C4479.59 1834.43 4480.68 1856.78 4482.13 1873.13L4491.94 1867.13C4499.57 1862.77 4506.84 1858.96 4513.74 1855.69C4521.01 1852.42 4528.82 1850.42 4537.17 1849.69C4543.35 1848.97 4549.71 1849.69 4556.25 1851.87C4562.79 1853.69 4568.78 1856.96 4574.23 1861.68C4579.68 1866.04 4584.22 1872.04 4587.86 1879.67C4591.49 1887.3 4593.31 1896.56 4593.31 1907.46C4593.31 1922.72 4589.13 1935.07 4580.77 1944.52C4572.78 1953.6 4564.42 1959.96 4555.7 1963.59C4546.98 1967.59 4538.63 1971.77 4530.63 1976.13C4522.64 1980.12 4514.47 1984.3 4506.11 1988.66C4493.76 1995.2 4481.77 2001.38 4470.14 2007.19C4458.88 2013 4448.89 2015.91 4440.17 2015.91C4422.73 2015.91 4408.56 2007.74 4397.66 1991.39C4387.12 1974.67 4379.13 1952.51 4373.68 1924.9C4359.15 1939.79 4342.62 1953.24 4324.09 1965.23C4305.56 1977.22 4285.76 1987.57 4264.68 1996.29C4243.61 2005.01 4221.45 2011.73 4198.2 2016.46C4175.31 2021.18 4152.24 2023.54 4128.99 2023.54C4081.75 2023.54 4038.88 2014.64 4000.37 1996.84C3962.22 1979.03 3929.52 1954.69 3902.27 1923.81C3875.03 1892.93 3853.95 1856.78 3839.06 1815.36C3824.16 1773.58 3816.71 1728.71 3816.71 1680.75ZM3938.24 1680.75C3938.24 1709.45 3942.78 1737.43 3951.87 1764.68C3960.95 1791.56 3974.03 1815.54 3991.11 1836.61C4008.55 1857.68 4029.62 1874.58 4054.32 1887.3C4079.03 1900.01 4107 1906.37 4138.25 1906.37C4162.23 1906.37 4186.21 1902.55 4210.19 1894.93C4234.17 1886.93 4256.15 1875.85 4276.13 1861.68C4296.47 1847.15 4314.1 1829.71 4328.99 1809.36C4343.89 1788.65 4354.06 1765.4 4359.51 1739.61C4359.51 1724.71 4359.51 1712.54 4359.51 1703.09C4359.51 1693.65 4359.33 1685.65 4358.97 1679.11C4358.97 1672.21 4358.97 1666.03 4358.97 1660.58C4358.97 1654.77 4358.97 1648.23 4358.97 1640.97C4353.15 1614.81 4343.71 1590.46 4330.63 1567.94C4317.91 1545.05 4302.29 1525.25 4283.76 1508.54C4265.23 1491.82 4244.34 1478.74 4221.09 1469.3C4198.2 1459.49 4173.85 1454.58 4148.06 1454.58C4117.9 1454.58 4089.93 1460.03 4064.13 1470.93C4038.7 1481.83 4016.54 1497.27 3997.65 1517.26C3979.12 1536.88 3964.58 1560.67 3954.05 1588.65C3943.51 1616.26 3938.24 1646.96 3938.24 1680.75Z" fill="#43ACB1"/>
<path d="M4750.59 1761.95C4757.49 1789.2 4767.66 1812.09 4781.1 1830.62C4794.91 1848.78 4810.35 1863.5 4827.43 1874.76C4844.5 1886.02 4862.49 1894.2 4881.38 1899.28C4900.64 1904.01 4919.35 1906.37 4937.51 1906.37C4965.85 1906.37 4991.1 1904.01 5013.27 1899.28C5035.43 1894.2 5054.32 1888.2 5069.94 1881.3C5085.93 1874.03 5098.83 1866.59 5108.64 1858.96C5118.45 1851.33 5125.35 1844.61 5129.35 1838.79C5132.98 1833.34 5136.98 1828.26 5141.33 1823.53C5146.06 1818.45 5150.96 1814.09 5156.05 1810.45C5161.5 1806.46 5166.77 1803.37 5171.85 1801.19C5177.3 1799.01 5182.39 1797.92 5187.11 1797.92C5205.28 1797.92 5219.27 1803.37 5229.08 1814.27C5239.25 1824.8 5244.34 1839.16 5244.34 1857.32C5244.34 1864.22 5241.79 1872.94 5236.71 1883.48C5231.62 1894.02 5222.17 1905.64 5208.37 1918.36C5193.11 1932.53 5176.03 1945.97 5157.14 1958.69C5138.61 1971.4 5118.08 1982.67 5095.56 1992.48C5073.03 2001.92 5048.51 2009.37 5021.98 2014.82C4995.83 2020.63 4967.49 2023.54 4936.97 2023.54C4901 2023.54 4868.12 2018.63 4838.33 2008.83C4808.54 1999.38 4781.83 1986.48 4758.22 1970.13C4734.6 1953.42 4714.07 1934.16 4696.63 1912.36C4679.19 1890.57 4664.66 1867.31 4653.04 1842.61C4641.41 1817.9 4632.69 1792.47 4626.88 1766.31C4621.06 1740.15 4618.16 1714.72 4618.16 1690.01C4618.16 1636.24 4626.88 1587.74 4644.32 1544.5C4661.75 1500.91 4685.73 1463.67 4716.25 1432.78C4746.77 1401.9 4782.92 1378.11 4824.7 1361.39C4866.48 1344.68 4911.72 1336.32 4960.4 1336.32C4995.28 1336.32 5027.98 1341.59 5058.5 1352.13C5089.02 1362.3 5116.08 1376.83 5139.7 1395.73C5163.68 1414.26 5183.66 1436.6 5199.65 1462.76C5216 1488.55 5227.44 1517.07 5233.98 1548.32C5241.25 1554.5 5246.52 1562.67 5249.79 1572.84C5253.42 1582.65 5255.24 1592.46 5255.24 1602.27C5255.24 1618.62 5249.6 1632.06 5238.34 1642.6C5227.44 1652.77 5213.64 1659.86 5196.92 1663.85C5160.23 1673.3 5123.53 1682.02 5086.84 1690.01C5050.14 1698.01 5013.27 1705.82 4976.21 1713.45C4939.15 1721.08 4901.73 1728.89 4863.94 1736.88C4826.52 1744.87 4788.73 1753.23 4750.59 1761.95ZM4741.32 1661.13C4803.09 1646.6 4865.58 1632.97 4928.79 1620.26C4992.01 1607.54 5056.32 1593.37 5121.72 1577.75C5115.54 1561.04 5107.18 1545.23 5096.65 1530.34C5086.11 1515.08 5073.76 1501.81 5059.59 1490.55C5045.42 1479.29 5029.61 1470.39 5012.18 1463.85C4995.1 1457.31 4976.57 1454.04 4956.59 1454.04C4925.71 1454.04 4897.55 1459.12 4872.12 1469.3C4847.05 1479.11 4825.25 1493.1 4806.72 1511.26C4788.19 1529.06 4773.29 1550.86 4762.03 1576.66C4750.77 1602.09 4743.86 1630.25 4741.32 1661.13Z" fill="#43ACB1"/>
</svg>
