<svg width="28" height="28" viewBox="0 0 28 28" fill="none" xmlns="http://www.w3.org/2000/svg">
<path d="M16.818 0.285004C15.907 0.0980037 14.965 0 14 0C13.035 0 12.093 0.0980037 11.182 0.285004C4.80901 1.593 0 7.245 0 14C0 21.72 6.28 28 14 28C21.72 28 28 21.72 28 14C28 7.245 23.191 1.593 16.818 0.285004ZM22.47 23.841C22.041 24.012 21.614 23.995 21.265 23.506C20.492 22.425 18.175 24.336 17.248 23.66C16.321 22.984 17.789 23.043 17.094 21.498C16.399 19.953 18.793 20.494 19.643 20.107C20.492 19.722 21.574 17.636 22.192 18.408C22.809 19.181 23.659 19.799 23.736 18.873C23.813 17.945 24.894 16.787 24.894 19.026C24.894 20.07 24.823 20.817 24.681 21.392C24.05 22.301 23.306 23.121 22.47 23.841ZM1 14C1 6.832 6.832 1 14 1C16.642 1 19.098 1.797 21.151 3.155C20.931 3.736 20.458 4.232 20.183 4.507C19.719 4.97 18.02 5.048 18.484 5.588C18.947 6.129 18.793 8.292 18.02 8.601C17.248 8.91 15.627 10.068 16.089 10.686C16.552 11.303 17.71 13.002 15.318 12.076C12.923 11.15 15.982 15.863 15.341 15.603C13.737 14.954 13.124 13.621 13.445 12.57C13.734 11.627 12.692 11.193 12.692 10.686C12.692 9.682 10.529 9.373 9.679 9.991C8.829 10.609 9.216 13.389 8.058 13.003C6.899 12.617 7.43999 9.219 5.81799 8.293C4.19699 7.365 4.351 10.145 2.575 11.922C1.471 13.027 1.443 15.853 1.58 17.84C1.203 16.625 1 15.336 1 14ZM22.308 4.01199C22.409 4.81999 22.815 6.278 21.993 6.942C21.397 7.422 18.823 6.72899 19.952 6.20799C21.04 5.70599 21.759 5.08699 21.761 3.59599C21.943 3.73199 22.131 3.86399 22.308 4.01199ZM22.867 15.25C23.022 13.861 25.028 15.328 25.801 16.177C26.572 17.025 22.714 16.64 22.867 15.25ZM18.813 15.513C19.217 16.092 18.408 16.44 17.828 16.208C17.249 15.977 16.265 16.324 16.322 15.339C16.322 15.339 16.901 14.412 17.654 13.892C18.408 13.371 19.276 12.791 19.218 13.543C19.16 14.297 18.407 14.934 18.813 15.513ZM14.671 18.142C12.586 17.563 12.586 17.041 12.354 16.404C12.123 15.767 11.486 14.725 11.891 14.435C12.297 14.145 14.034 15.651 14.614 16.462C15.193 17.273 15.475 17.106 16.873 17.504C17.683 17.736 16.756 18.721 14.671 18.142Z" fill="#358a8e"/>
</svg>
